<svg xmlns="http://www.w3.org/2000/svg" width="125.689" height="121.5" viewBox="0 0 125.689 121.5">
  <g id="website" transform="translate(0 -8.533)">
    <g id="Groupe_35" data-name="Groupe 35" transform="translate(0 8.533)">
      <g id="Groupe_34" data-name="Groupe 34">
        <path id="Tracé_53" data-name="Tracé 53" d="M117.308,8.533H8.381A8.391,8.391,0,0,0,0,16.914V86.041a2.1,2.1,0,0,0,2.095,2.095h121.5a2.1,2.1,0,0,0,2.095-2.095V16.914A8.391,8.391,0,0,0,117.308,8.533ZM121.5,83.947H4.19V16.914a4.2,4.2,0,0,1,4.192-4.192H117.308a4.2,4.2,0,0,1,4.192,4.192Z" transform="translate(0 -8.533)" fill="#636363"/>
      </g>
    </g>
    <g id="Groupe_37" data-name="Groupe 37" transform="translate(0 83.947)">
      <g id="Groupe_36" data-name="Groupe 36">
        <path id="Tracé_54" data-name="Tracé 54" d="M123.595,315.733H2.095A2.1,2.1,0,0,0,0,317.828V328.3a8.391,8.391,0,0,0,8.381,8.382H117.308a8.391,8.391,0,0,0,8.381-8.382V317.828A2.1,2.1,0,0,0,123.595,315.733ZM121.5,328.3a4.2,4.2,0,0,1-4.192,4.192H8.381A4.2,4.2,0,0,1,4.19,328.3v-8.377H121.5V328.3Z" transform="translate(0 -315.733)" fill="#636363"/>
      </g>
    </g>
    <g id="Groupe_39" data-name="Groupe 39" transform="translate(54.465 92.326)">
      <g id="Groupe_38" data-name="Groupe 38">
        <path id="Tracé_55" data-name="Tracé 55" d="M236.531,349.867H223.962a2.095,2.095,0,1,0,0,4.189h12.569a2.095,2.095,0,0,0,0-4.189Z" transform="translate(-221.867 -349.867)" fill="#636363"/>
      </g>
    </g>
    <g id="Groupe_41" data-name="Groupe 41" transform="translate(8.379 16.912)">
      <g id="Groupe_40" data-name="Groupe 40" transform="translate(0 0)">
        <path id="Tracé_56" data-name="Tracé 56" d="M140.97,42.667H36.229a2.1,2.1,0,0,0-2.095,2.095V111.8a2.1,2.1,0,0,0,2.095,2.095H140.97a2.1,2.1,0,0,0,2.095-2.095V44.762A2.1,2.1,0,0,0,140.97,42.667ZM138.875,109.7H38.323V46.856H138.875Z" transform="translate(-34.134 -42.667)" fill="#636363"/>
      </g>
    </g>
    <g id="Groupe_43" data-name="Groupe 43" transform="translate(29.328 117.464)">
      <g id="Groupe_42" data-name="Groupe 42">
        <path id="Tracé_57" data-name="Tracé 57" d="M180.217,452.267H125.751a6.284,6.284,0,0,0,0,12.569h54.465a6.284,6.284,0,1,0,0-12.569Zm0,8.379H125.751a2.095,2.095,0,1,1,0-4.189h54.465a2.095,2.095,0,1,1,0,4.189Z" transform="translate(-119.467 -452.267)" fill="#636363"/>
      </g>
    </g>
    <g id="Groupe_45" data-name="Groupe 45" transform="translate(37.707 100.706)">
      <g id="Groupe_44" data-name="Groupe 44">
        <path id="Tracé_58" data-name="Tracé 58" d="M201.782,400.759c-6.951,0-10.474-4.933-10.474-14.664A2.1,2.1,0,0,0,189.213,384H168.265a2.1,2.1,0,0,0-2.095,2.095c0,9.73-3.523,14.664-10.474,14.664a2.095,2.095,0,0,0,0,4.19h46.086a2.095,2.095,0,0,0,0-4.19Zm-35.882,0c2.579-2.857,4.1-7.112,4.4-12.569h16.874c.3,5.457,1.822,9.712,4.4,12.569Z" transform="translate(-153.601 -384.001)" fill="#636363"/>
      </g>
    </g>
    <g id="Groupe_47" data-name="Groupe 47" transform="translate(73.333 52.524)">
      <g id="Groupe_46" data-name="Groupe 46">
        <path id="Tracé_59" data-name="Tracé 59" d="M325.49,205.462l-5.057-5.057,2.813-2.813a2.094,2.094,0,0,0-.878-3.488L301.42,187.82a2.1,2.1,0,0,0-2.608,2.608l6.284,20.948a2.094,2.094,0,0,0,3.488.88l2.962-2.964,5.057,5.059a2.094,2.094,0,0,0,2.962,0l5.924-5.926A2.092,2.092,0,0,0,325.49,205.462Zm-7.405,4.445-4.6-4.607a2.738,2.738,0,0,0-3.867,0l-1.513,1.512-4.158-13.861,13.861,4.158-1.621,1.621a2.374,2.374,0,0,0,0,3.354l4.86,4.86Z" transform="translate(-298.723 -187.731)" fill="#636363"/>
      </g>
    </g>
    <g id="Groupe_49" data-name="Groupe 49" transform="translate(27.233 25.292)">
      <g id="Groupe_48" data-name="Groupe 48">
        <path id="Tracé_60" data-name="Tracé 60" d="M171.684,76.8H113.029a2.1,2.1,0,0,0-2.095,2.095V89.369a2.1,2.1,0,0,0,2.095,2.095h58.655a2.1,2.1,0,0,0,2.095-2.095V78.895A2.1,2.1,0,0,0,171.684,76.8Zm-2.095,10.474H115.123V80.99h54.466Z" transform="translate(-110.934 -76.8)" fill="#636363"/>
      </g>
    </g>
    <g id="Groupe_51" data-name="Groupe 51" transform="translate(35.612 48.335)">
      <g id="Groupe_50" data-name="Groupe 50">
        <path id="Tracé_61" data-name="Tracé 61" d="M163.92,170.667H147.162a2.1,2.1,0,0,0-2.095,2.095v8.379a2.1,2.1,0,0,0,2.095,2.095H163.92a2.1,2.1,0,0,0,2.095-2.095v-8.379A2.1,2.1,0,0,0,163.92,170.667Zm-2.095,8.379H149.256v-4.19h12.569Z" transform="translate(-145.067 -170.667)" fill="#636363"/>
      </g>
    </g>
    <g id="Groupe_53" data-name="Groupe 53" transform="translate(27.233 25.292)">
      <g id="Groupe_52" data-name="Groupe 52">
        <path id="Tracé_62" data-name="Tracé 62" d="M171.684,76.8H113.029a2.1,2.1,0,0,0-2.095,2.095v39.8a2.1,2.1,0,0,0,2.095,2.095H162.9a2.1,2.1,0,0,0,2.007-2.7l-2.652-8.842,8.83,2.65a2.1,2.1,0,0,0,2.7-2.007v-31A2.1,2.1,0,0,0,171.684,76.8Zm-2.095,30.279-9.86-2.958a2.1,2.1,0,0,0-2.608,2.61l2.962,9.871H115.123V80.99h54.466Z" transform="translate(-110.934 -76.8)" fill="#636363"/>
      </g>
    </g>
  </g>
</svg>
