<svg xmlns="http://www.w3.org/2000/svg" width="97.805" height="97.805" viewBox="0 0 97.805 97.805">
  <g id="chrome-extension" transform="translate(1 1)">
    <g id="Groupe_71" data-name="Groupe 71" transform="translate(-1 -1)">
      <g id="Groupe_70" data-name="Groupe 70">
        <path id="Tracé_102" data-name="Tracé 102" d="M53.771,160.888A20.611,20.611,0,0,1,35.84,158.28a24.505,24.505,0,0,1-8.314-9.455L6.661,112.311l-1.467,2.445A49.547,49.547,0,0,0-1,139.208a48.748,48.748,0,0,0,41.567,48.414l1.141.163,16.464-28.2ZM39.915,184.035a44.8,44.8,0,0,1-26.57-15A44.222,44.222,0,0,1,2.26,139.208a45.931,45.931,0,0,1,4.4-20.213l17.6,31.3A26.083,26.083,0,0,0,47.74,164.963a20.332,20.332,0,0,0,3.423-.326Z" transform="translate(1 -90.305)" fill="#636363"/>
        <path id="Tracé_103" data-name="Tracé 103" d="M65.8,41.871a22.441,22.441,0,0,1,22.006-16.79h43.36L129.7,22.636A46.8,46.8,0,0,0,112.1,5.52,46.386,46.386,0,0,0,87.807-1,48.789,48.789,0,0,0,49.174,17.909l-.652.815,16.3,26.733ZM52.434,19.05A43.079,43.079,0,0,1,67.92,6.824,42.992,42.992,0,0,1,87.807,2.26a42.826,42.826,0,0,1,22.5,6.194,44.863,44.863,0,0,1,15,13.53H87.644A24.628,24.628,0,0,0,71.832,27.2a25.057,25.057,0,0,0-8.15,10.433Z" transform="translate(-38.904 1)" fill="#636363"/>
        <path id="Tracé_104" data-name="Tracé 104" d="M286.651,151.9l-.489-.978H253.723l2.771,2.771c4.89,4.89,7.5,10.759,7.5,16.627a22.086,22.086,0,0,1-4.075,13.041l-20.865,35.862h2.771a47.594,47.594,0,0,0,34.232-14.508,47.01,47.01,0,0,0,14.182-34.395A45.847,45.847,0,0,0,286.651,151.9Zm-12.878,50.533A44.237,44.237,0,0,1,244.758,215.8l17.768-30.646a25.7,25.7,0,0,0-1.3-30.972h22.821a41.942,41.942,0,0,1,2.934,16.138A44.328,44.328,0,0,1,273.773,202.432Z" transform="translate(-192.432 -121.416)" fill="#636363"/>
        <path id="Tracé_105" data-name="Tracé 105" d="M150.082,169.643a19.561,19.561,0,1,0,19.561-19.561A19.833,19.833,0,0,0,150.082,169.643Zm19.561-16.3a16.3,16.3,0,1,1-16.3,16.3A16.564,16.564,0,0,1,169.643,153.342Z" transform="translate(-120.74 -120.74)" fill="#636363"/>
      </g>
    </g>
  </g>
</svg>
