<svg xmlns="http://www.w3.org/2000/svg" width="115.662" height="81.325" viewBox="0 0 115.662 81.325">
  <g id="cross-platform-app" transform="translate(0 -76)">
    <g id="Groupe_65" data-name="Groupe 65" transform="translate(0 76)">
      <g id="Groupe_64" data-name="Groupe 64">
        <path id="Tracé_81" data-name="Tracé 81" d="M107.755,76h-38.4a7.916,7.916,0,0,0-7.907,7.907H7.907A7.916,7.916,0,0,0,0,91.813v49.7a7.916,7.916,0,0,0,7.907,7.907H61.445a7.916,7.916,0,0,0,7.907,7.907h38.4a7.916,7.916,0,0,0,7.907-7.907V83.907A7.916,7.916,0,0,0,107.755,76Zm-46.31,66.641H7.907a1.131,1.131,0,0,1-1.13-1.13v-3.389H61.445Zm0-11.3H6.777V91.813a1.131,1.131,0,0,1,1.13-1.13H61.445Zm35.4-48.569-.9,4.518H81.166l-.9-4.518Zm12.04,66.641a1.131,1.131,0,0,1-1.13,1.13h-38.4a1.131,1.131,0,0,1-1.13-1.13V83.907a1.131,1.131,0,0,1,1.13-1.13h4l2.259,11.3H101.5l2.259-11.3h4a1.131,1.131,0,0,1,1.13,1.13Z" transform="translate(0 -76)" fill="#636363"/>
      </g>
    </g>
    <g id="Groupe_67" data-name="Groupe 67" transform="translate(18.298 93.169)">
      <g id="Groupe_66" data-name="Groupe 66">
        <path id="Tracé_82" data-name="Tracé 82" d="M104.946,152A13.578,13.578,0,0,0,91.82,162.166H81v24.849h24.849v-7.94a13.552,13.552,0,0,0-.9-27.075Zm-5.873,28.238h-11.3v-11.3H91.82a13.614,13.614,0,0,0,7.252,8.826Zm5.873-7.907a6.777,6.777,0,1,1,6.777-6.777A6.785,6.785,0,0,1,104.946,172.331Z" transform="translate(-81 -152)" fill="#636363"/>
      </g>
    </g>
    <g id="Groupe_69" data-name="Groupe 69" transform="translate(70.256 99.042)">
      <g id="Groupe_68" data-name="Groupe 68">
        <path id="Tracé_83" data-name="Tracé 83" d="M334.946,178a13.578,13.578,0,0,0-13.125,10.166H311v24.849h24.849v-7.94a13.552,13.552,0,0,0-.9-27.075Zm-5.873,28.238h-11.3v-11.3h4.043a13.614,13.614,0,0,0,7.252,8.826Zm5.873-7.907a6.777,6.777,0,1,1,6.777-6.777A6.785,6.785,0,0,1,334.946,198.331Z" transform="translate(-311 -178)" fill="#636363"/>
      </g>
    </g>
  </g>
</svg>
