<svg xmlns="http://www.w3.org/2000/svg" width="57.535" height="69.138" viewBox="0 0 57.535 69.138">
  <g id="Groupe_73" data-name="Groupe 73" transform="translate(-1550 -1320)">
    <g id="iphone-ipad" transform="translate(1550 1320)">
      <g id="Layer_60_35_" transform="translate(0)">
        <g id="Groupe_72" data-name="Groupe 72">
          <path id="Tracé_106" data-name="Tracé 106" d="M9.59,5.844H38.328v12.63h5.841V0H3.746V60.642H30.168V50.586H9.59ZM24.809,53.7A1.949,1.949,0,1,1,22.86,55.65,1.947,1.947,0,0,1,24.809,53.7Z" transform="translate(-3.746)" fill="#636363"/>
          <path id="Tracé_107" data-name="Tracé 107" d="M22.633,13.926V61.493H50.912V13.926ZM37.4,15.9a.682.682,0,1,1-.683.682A.681.681,0,0,1,37.4,15.9Zm-4.069,2.282H41.47v.655H33.335Zm3.8,41.261a1.631,1.631,0,1,1,1.631-1.631A1.631,1.631,0,0,1,37.134,59.439Zm9.243-5.6c-7.345.037-15.562.07-19.2.036v-32.7l19.2-.006Z" transform="translate(6.622 7.645)" fill="#636363"/>
        </g>
      </g>
    </g>
  </g>
</svg>
