<svg xmlns="http://www.w3.org/2000/svg" width="135.193" height="102.695" viewBox="0 0 135.193 102.695">
  <g id="Iphone-Android" transform="translate(-1513 -522)">
    <g id="smartphone_1_" data-name="smartphone (1)" transform="translate(1577 522)">
      <path id="Tracé_68" data-name="Tracé 68" d="M63.654,0H20.539A7.549,7.549,0,0,0,13,7.539V95.153a7.549,7.549,0,0,0,7.539,7.541H63.652a7.549,7.549,0,0,0,7.541-7.539V7.539A7.549,7.549,0,0,0,63.654,0ZM16.423,13.693H67.77v65.04H16.423ZM20.539,3.423H63.652A4.122,4.122,0,0,1,67.77,7.539v2.73H16.423V7.539A4.121,4.121,0,0,1,20.539,3.423ZM63.654,99.271H20.539a4.121,4.121,0,0,1-4.116-4.116v-13H67.77v13A4.121,4.121,0,0,1,63.654,99.271Z" fill="#636363"/>
      <path id="Tracé_69" data-name="Tracé 69" d="M32.846,49a6.846,6.846,0,1,0,6.846,6.846A6.853,6.853,0,0,0,32.846,49Zm0,10.269a3.423,3.423,0,1,1,3.423-3.423A3.427,3.427,0,0,1,32.846,59.269Z" transform="translate(9.25 34.867)" fill="#636363"/>
      <path id="Tracé_70" data-name="Tracé 70" d="M26.712,6.423h6.846a1.712,1.712,0,0,0,0-3.423H26.712a1.712,1.712,0,1,0,0,3.423Z" transform="translate(8.539 2.135)" fill="#636363"/>
      <path id="Tracé_71" data-name="Tracé 71" d="M33.712,6.423h1.712a1.712,1.712,0,1,0,0-3.423H33.712a1.712,1.712,0,1,0,0,3.423Z" transform="translate(13.52 2.135)" fill="#636363"/>
      <path id="Tracé_72" data-name="Tracé 72" d="M36.2,11.02H29.488A3.492,3.492,0,0,0,26,14.508v6.716a3.492,3.492,0,0,0,3.488,3.488H36.2a3.492,3.492,0,0,0,3.488-3.488V14.508A3.492,3.492,0,0,0,36.2,11.02Zm.065,10.2a.065.065,0,0,1-.065.065l-6.781-.065.065-6.781,6.781.067Z" transform="translate(9.25 7.842)" fill="#636363"/>
      <path id="Tracé_73" data-name="Tracé 73" d="M27.2,11.02H20.488A3.492,3.492,0,0,0,17,14.508v6.716a3.492,3.492,0,0,0,3.488,3.488H27.2a3.492,3.492,0,0,0,3.488-3.488V14.508A3.492,3.492,0,0,0,27.2,11.02Zm.065,10.2a.065.065,0,0,1-.065.065l-6.781-.065.065-6.781,6.781.067Z" transform="translate(2.846 7.842)" fill="#636363"/>
      <path id="Tracé_74" data-name="Tracé 74" d="M45.2,11.02H38.488A3.492,3.492,0,0,0,35,14.508v6.716a3.492,3.492,0,0,0,3.488,3.488H45.2a3.492,3.492,0,0,0,3.488-3.488V14.508A3.492,3.492,0,0,0,45.2,11.02Zm.065,10.2a.065.065,0,0,1-.065.065l-6.781-.065.065-6.781,6.781.067Z" transform="translate(15.655 7.842)" fill="#636363"/>
      <path id="Tracé_75" data-name="Tracé 75" d="M36.2,20H29.488A3.492,3.492,0,0,0,26,23.488V30.2a3.492,3.492,0,0,0,3.488,3.488H36.2A3.492,3.492,0,0,0,39.693,30.2V23.488A3.492,3.492,0,0,0,36.2,20Zm.065,10.2a.066.066,0,0,1-.065.065L29.423,30.2l.065-6.781,6.781.065Z" transform="translate(9.25 14.232)" fill="#636363"/>
      <path id="Tracé_76" data-name="Tracé 76" d="M27.2,20H20.488A3.492,3.492,0,0,0,17,23.488V30.2a3.492,3.492,0,0,0,3.488,3.488H27.2A3.492,3.492,0,0,0,30.693,30.2V23.488A3.492,3.492,0,0,0,27.2,20Zm.065,10.2a.066.066,0,0,1-.065.065L20.423,30.2l.065-6.781,6.781.065Z" transform="translate(2.846 14.232)" fill="#636363"/>
      <path id="Tracé_77" data-name="Tracé 77" d="M45.2,20H38.488A3.492,3.492,0,0,0,35,23.488V30.2a3.492,3.492,0,0,0,3.488,3.488H45.2A3.492,3.492,0,0,0,48.693,30.2V23.488A3.492,3.492,0,0,0,45.2,20Zm.065,10.2a.066.066,0,0,1-.065.065L38.423,30.2l.065-6.781,6.781.065Z" transform="translate(15.655 14.232)" fill="#636363"/>
      <path id="Tracé_78" data-name="Tracé 78" d="M36.2,29H29.488A3.492,3.492,0,0,0,26,32.488V39.2a3.492,3.492,0,0,0,3.488,3.488H36.2A3.492,3.492,0,0,0,39.693,39.2V32.488A3.492,3.492,0,0,0,36.2,29Zm.065,10.2a.066.066,0,0,1-.065.065L29.423,39.2l.065-6.781,6.781.065Z" transform="translate(9.25 20.636)" fill="#636363"/>
      <path id="Tracé_79" data-name="Tracé 79" d="M27.2,29H20.488A3.492,3.492,0,0,0,17,32.488V39.2a3.492,3.492,0,0,0,3.488,3.488H27.2A3.492,3.492,0,0,0,30.693,39.2V32.488A3.492,3.492,0,0,0,27.2,29Zm.065,10.2a.066.066,0,0,1-.065.065L20.423,39.2l.065-6.781,6.781.065Z" transform="translate(2.846 20.636)" fill="#636363"/>
      <path id="Tracé_80" data-name="Tracé 80" d="M45.2,29H38.488A3.492,3.492,0,0,0,35,32.488V39.2a3.492,3.492,0,0,0,3.488,3.488H45.2A3.492,3.492,0,0,0,48.693,39.2V32.488A3.492,3.492,0,0,0,45.2,29Zm.065,10.2a.066.066,0,0,1-.065.065L38.423,39.2l.065-6.781,6.781.065Z" transform="translate(15.655 20.636)" fill="#636363"/>
    </g>
    <g id="smartphone" transform="translate(1402.067 522)">
      <g id="Groupe_55" data-name="Groupe 55" transform="translate(129.761 5.135)">
        <g id="Groupe_54" data-name="Groupe 54" transform="translate(0)">
          <path id="Tracé_63" data-name="Tracé 63" d="M223.628,25.6H206.512a1.712,1.712,0,0,0,0,3.423h17.116a1.712,1.712,0,0,0,0-3.423Z" transform="translate(-204.801 -25.6)" fill="#636363"/>
        </g>
      </g>
      <g id="Groupe_57" data-name="Groupe 57" transform="translate(157.146 5.135)">
        <g id="Groupe_56" data-name="Groupe 56" transform="translate(0)">
          <path id="Tracé_64" data-name="Tracé 64" d="M344.757,25.6h-1.711a1.712,1.712,0,1,0,0,3.423h1.711a1.712,1.712,0,1,0,0-3.423Z" transform="translate(-341.334 -25.6)" fill="#636363"/>
        </g>
      </g>
      <g id="Groupe_59" data-name="Groupe 59" transform="translate(133.184 87.29)">
        <g id="Groupe_58" data-name="Groupe 58">
          <path id="Tracé_65" data-name="Tracé 65" d="M230.839,435.2h-4.25a4.728,4.728,0,0,0-4.722,4.722v.827a4.726,4.726,0,0,0,4.721,4.721h4.25a4.727,4.727,0,0,0,4.722-4.721v-.827A4.728,4.728,0,0,0,230.839,435.2Zm1.3,5.549a1.3,1.3,0,0,1-1.3,1.3h-4.25a1.3,1.3,0,0,1-1.3-1.3v-.827a1.3,1.3,0,0,1,1.3-1.3h4.248a1.3,1.3,0,0,1,1.3,1.3Z" transform="translate(-221.867 -435.2)" fill="#636363"/>
        </g>
      </g>
      <g id="Groupe_61" data-name="Groupe 61" transform="translate(110.933)">
        <g id="Groupe_60" data-name="Groupe 60" transform="translate(0)">
          <path id="Tracé_66" data-name="Tracé 66" d="M162.941,0H117.12a6.2,6.2,0,0,0-6.187,6.187v90.32a6.2,6.2,0,0,0,6.187,6.187h45.819a6.2,6.2,0,0,0,6.187-6.186V6.187A6.194,6.194,0,0,0,162.941,0ZM165.7,96.507a2.767,2.767,0,0,1-2.763,2.764H117.12a2.767,2.767,0,0,1-2.764-2.763V6.187a2.767,2.767,0,0,1,2.764-2.764h45.819A2.767,2.767,0,0,1,165.7,6.187v90.32Z" transform="translate(-110.933)" fill="#636363"/>
        </g>
      </g>
      <g id="Groupe_63" data-name="Groupe 63" transform="translate(110.933 10.269)">
        <g id="Groupe_62" data-name="Groupe 62">
          <path id="Tracé_67" data-name="Tracé 67" d="M167.416,51.2h-54.77a1.712,1.712,0,0,0-1.712,1.712V124.8a1.712,1.712,0,0,0,1.712,1.712h54.771a1.712,1.712,0,0,0,1.712-1.712V52.912A1.712,1.712,0,0,0,167.416,51.2ZM165.7,123.086H114.357V54.623H165.7Z" transform="translate(-110.934 -51.2)" fill="#636363"/>
        </g>
      </g>
    </g>
  </g>
</svg>
