<svg xmlns="http://www.w3.org/2000/svg" width="80.702" height="96.978" viewBox="0 0 80.702 96.978">
  <g id="iphone-ipad" transform="translate(-3.746)">
    <g id="Layer_60_35_" transform="translate(3.746)">
      <g id="Groupe_72" data-name="Groupe 72">
        <path id="Tracé_106" data-name="Tracé 106" d="M11.944,8.2h40.31V25.914h8.193V0H3.746V85.061H40.808V70.956H11.944ZM33.29,75.327a2.733,2.733,0,1,1-2.733,2.731A2.731,2.731,0,0,1,33.29,75.327Z" transform="translate(-3.746)" fill="#636363"/>
        <path id="Tracé_107" data-name="Tracé 107" d="M22.633,13.926V80.647H62.3V13.926ZM43.352,16.69a.957.957,0,1,1-.958.956A.956.956,0,0,1,43.352,16.69Zm-5.708,3.2H49.055v.919H37.644Zm5.33,57.876a2.288,2.288,0,1,1,2.288-2.288A2.288,2.288,0,0,1,42.974,77.766ZM55.938,69.91c-10.3.052-21.829.1-26.937.05V24.09l26.937-.009Z" transform="translate(18.403 16.331)" fill="#636363"/>
      </g>
    </g>
  </g>
</svg>
