<svg xmlns="http://www.w3.org/2000/svg" width="97" height="97" viewBox="0 0 97 97">
  <g id="kickstar" transform="translate(-36.547)">
    <path id="Tracé_101" data-name="Tracé 101" d="M71.869,33.054,93.656,7.281A19.753,19.753,0,0,1,109.449,0a20.932,20.932,0,0,1,13.543,4.62c3.764,3.084,5.733,6.772,5.733,11.066a12.814,12.814,0,0,1-2.943,8.405L106.793,47.413l23.259,24.861a12.309,12.309,0,0,1,3.5,8.685,14.471,14.471,0,0,1-5.48,11.315A19.637,19.637,0,0,1,114.784,97c-5.7,0-10.745-1.565-13.735-4.695L71.869,62.329V78.86c0,4.717-.268,8.379-2.207,10.995C66.125,94.617,61.331,97,54.578,97c-6.147,0-10.412-1.752-13.793-5.254-3.15-3.224-4.239-7.493-4.239-12.819V17.645c0-5.037,1.287-9.194,4.5-12.463C44.422,1.726,48.914,0,54.835,0A19.877,19.877,0,0,1,68.873,5.183a10.992,10.992,0,0,1,3.242,5.812c.33,1.213-.245,3.476-.245,6.793Z" transform="translate(0 0)" fill="#636363"/>
  </g>
</svg>
