<svg xmlns="http://www.w3.org/2000/svg" width="93.157" height="89.5" viewBox="0 0 93.157 89.5">
  <path id="open-source" d="M30.6,89.448s2.805,1.016,3.782-1.681C46.506,55.9,44.981,59.93,45.121,59.518a3.111,3.111,0,0,0-1.735-3.638c-.023-.008-.047,0-.07-.012s-.035-.023-.058-.031a9.741,9.741,0,0,1-6.876-11.175,9.955,9.955,0,0,1,10.23-8.669,9.951,9.951,0,0,1,10.226,8.673,9.739,9.739,0,0,1-6.876,11.175c-.023.008-.035.023-.058.031s-.047,0-.07.012a2.867,2.867,0,0,0-1.7,3.7C49.8,63.973,59.456,89.4,58.837,87.775a2.923,2.923,0,0,0,3.712,1.708.4.4,0,0,0,.039-.016.023.023,0,0,0,.016,0,.054.054,0,0,0,.016-.012C87.795,80.417,95.764,57.312,92.487,38.4,89.192,19.362,73.724.155,46.611.155S4.027,19.358.727,38.385C-2.549,57.3,5.42,80.413,30.6,89.448ZM6.482,39.381c2.879-16.619,16.4-33.39,40.129-33.39S83.857,22.77,86.74,39.4c2.743,15.829-3.584,35-23.5,43.507L54.592,60.172A15.487,15.487,0,0,0,62.6,43.743a16.2,16.2,0,0,0-31.981,0A15.493,15.493,0,0,0,38.63,60.172L29.984,82.9C10.066,74.39,3.735,55.214,6.482,39.381Z" transform="translate(-0.028 -0.155)" fill="#888"/>
</svg>
