<svg id="pc" xmlns="http://www.w3.org/2000/svg" width="97" height="97" viewBox="0 0 97 97">
  <g id="_016---PC-and-Monitor" data-name="016---PC-and-Monitor">
    <path id="Shape" d="M5.62,27.7a1.617,1.617,0,0,0,1.148-.469l6.467-6.467a1.623,1.623,0,0,0-2.3-2.3L4.472,24.938A1.617,1.617,0,0,0,5.62,27.7Z" transform="translate(2.463 11.097)" fill="#636363"/>
    <path id="Shape-2" data-name="Shape" d="M5.62,37.4a1.617,1.617,0,0,0,1.148-.469L22.935,20.767a1.623,1.623,0,0,0-2.3-2.3L4.472,34.638A1.617,1.617,0,0,0,5.62,37.4Z" transform="translate(2.463 11.097)" fill="#636363"/>
    <path id="Shape-3" data-name="Shape" d="M92.15,0H50.117a4.85,4.85,0,0,0-4.85,4.85V22.633H8.083A8.083,8.083,0,0,0,0,30.717V72.75a8.083,8.083,0,0,0,8.083,8.083H25.867V87.3h-4.85a4.85,4.85,0,1,0,0,9.7H92.15A4.85,4.85,0,0,0,97,92.15V4.85A4.85,4.85,0,0,0,92.15,0ZM8.083,25.867h58.2a4.85,4.85,0,0,1,4.85,4.85v38.8H3.233v-38.8A4.85,4.85,0,0,1,8.083,25.867ZM3.233,72.75h67.9a4.85,4.85,0,0,1-4.85,4.85H8.083A4.85,4.85,0,0,1,3.233,72.75ZM29.1,80.833H45.267V87.3H29.1ZM50.117,93.767h-29.1a1.617,1.617,0,0,1,0-3.233H53.35a1.617,1.617,0,1,1,0,3.233Zm43.65-1.617a1.617,1.617,0,0,1-1.617,1.617H57.909A4.85,4.85,0,0,0,53.35,87.3H48.5V80.833H66.283a8.083,8.083,0,0,0,8.083-8.083V30.717a8.083,8.083,0,0,0-8.083-8.083H48.5V4.85a1.617,1.617,0,0,1,1.617-1.617H92.15A1.617,1.617,0,0,1,93.767,4.85Z" fill="#636363"/>
    <path id="Shape-4" data-name="Shape" d="M67.567,5H35.233A3.233,3.233,0,0,0,32,8.233v3.233A3.233,3.233,0,0,0,35.233,14.7H67.567A3.233,3.233,0,0,0,70.8,11.467V8.233A3.233,3.233,0,0,0,67.567,5ZM35.233,11.467V8.233H67.567v3.233Z" transform="translate(19.733 3.083)" fill="#636363"/>
    <path id="Shape-5" data-name="Shape" d="M53.85,23.7A4.85,4.85,0,1,0,49,18.85,4.85,4.85,0,0,0,53.85,23.7Zm0-6.467a1.617,1.617,0,1,1-1.617,1.617A1.617,1.617,0,0,1,53.85,17.233Z" transform="translate(30.217 8.633)" fill="#636363"/>
    <path id="Shape-6" data-name="Shape" d="M58.7,26.85a4.85,4.85,0,1,0-4.85,4.85A4.85,4.85,0,0,0,58.7,26.85Zm-4.85,1.617a1.617,1.617,0,1,1,1.617-1.617A1.617,1.617,0,0,1,53.85,28.467Z" transform="translate(30.217 13.567)" fill="#636363"/>
    <path id="Shape-7" data-name="Shape" d="M39.617,52A1.617,1.617,0,0,0,38,53.617V56.85a1.617,1.617,0,1,0,3.233,0V53.617A1.617,1.617,0,0,0,39.617,52Z" transform="translate(23.433 32.067)" fill="#636363"/>
    <path id="Shape-8" data-name="Shape" d="M43.617,52A1.617,1.617,0,0,0,42,53.617V56.85a1.617,1.617,0,1,0,3.233,0V53.617A1.617,1.617,0,0,0,43.617,52Z" transform="translate(25.9 32.067)" fill="#636363"/>
    <path id="Shape-9" data-name="Shape" d="M47.617,52A1.617,1.617,0,0,0,46,53.617V56.85a1.617,1.617,0,1,0,3.233,0V53.617A1.617,1.617,0,0,0,47.617,52Z" transform="translate(28.367 32.067)" fill="#636363"/>
    <path id="Shape-10" data-name="Shape" d="M51.617,52A1.617,1.617,0,0,0,50,53.617V56.85a1.617,1.617,0,1,0,3.233,0V53.617A1.617,1.617,0,0,0,51.617,52Z" transform="translate(30.833 32.067)" fill="#636363"/>
    <path id="Shape-11" data-name="Shape" d="M55.617,52A1.617,1.617,0,0,0,54,53.617V56.85a1.617,1.617,0,1,0,3.233,0V53.617A1.617,1.617,0,0,0,55.617,52Z" transform="translate(33.3 32.067)" fill="#636363"/>
  </g>
</svg>
