<svg xmlns="http://www.w3.org/2000/svg" width="97.008" height="97.012" viewBox="0 0 97.008 97.012">
  <g id="responsive-app" transform="translate(0)">
    <path id="Tracé_84" data-name="Tracé 84" d="M26.283,93.131H22.635v3.88H37.186v-3.88H29.659l3.88-15.522h3.647v-3.88H6.467c-1.786,0-3.234-1.737-3.234-3.88v-3.88H37.186v-3.88H3.234V7.761c0-2.143,1.448-3.88,3.234-3.88H74.373c1.786,0,3.234,1.737,3.234,3.88V23.283H80.84V7.761C80.84,3.475,77.944,0,74.373,0H6.467C2.9,0,0,3.475,0,7.761V69.848c0,4.286,2.9,7.761,6.467,7.761h23.7Zm0,0" transform="translate(0)" fill="#888"/>
    <path id="Tracé_85" data-name="Tracé 85" d="M96.672,67.88v3.88h3.234V65.94A1.8,1.8,0,0,0,98.289,64H33.617A1.8,1.8,0,0,0,32,65.94V89.223a1.8,1.8,0,0,0,1.617,1.94h29.1v-3.88H35.234V67.88Zm0,0" transform="translate(-25.533 -48.478)" fill="#888"/>
    <path id="Tracé_86" data-name="Tracé 86" d="M53.018,203.641v-9.7A1.8,1.8,0,0,0,51.4,192H33.617A1.8,1.8,0,0,0,32,193.94v9.7h3.234V195.88H49.785v7.761Zm0,0" transform="translate(-25.533 -145.434)" fill="#888"/>
    <path id="Tracé_87" data-name="Tracé 87" d="M152,193.94v9.7h3.234V195.88h3.234V192h-4.85A1.8,1.8,0,0,0,152,193.94Zm0,0" transform="translate(-121.281 -145.434)" fill="#888"/>
    <path id="Tracé_88" data-name="Tracé 88" d="M32,32h3.234v3.88H32Zm0,0" transform="translate(-25.533 -24.239)" fill="#888"/>
    <path id="Tracé_89" data-name="Tracé 89" d="M64,32h3.234v3.88H64Zm0,0" transform="translate(-51.066 -24.239)" fill="#888"/>
    <path id="Tracé_90" data-name="Tracé 90" d="M96,32h3.234v3.88H96Zm0,0" transform="translate(-76.598 -24.239)" fill="#888"/>
    <path id="Tracé_91" data-name="Tracé 91" d="M245.27,127.522v-9.7c0-3.214-2.172-5.821-4.85-5.821H204.85c-2.679,0-4.85,2.606-4.85,5.821v58.207c0,3.214,2.172,5.821,4.85,5.821h22.635v-3.88H204.85a1.8,1.8,0,0,1-1.617-1.94v-1.94h24.252v-3.88H203.234V117.821a1.8,1.8,0,0,1,1.617-1.94H240.42a1.8,1.8,0,0,1,1.617,1.94v9.7Zm0,0" transform="translate(-159.58 -84.837)" fill="#888"/>
    <path id="Tracé_92" data-name="Tracé 92" d="M240,144h4.85v3.88H240Zm0,0" transform="translate(-191.496 -109.076)" fill="#888"/>
    <path id="Tracé_93" data-name="Tracé 93" d="M280,144h4.85v3.88H280Zm0,0" transform="translate(-223.412 -109.076)" fill="#888"/>
    <path id="Tracé_94" data-name="Tracé 94" d="M320,144h4.85v3.88H320Zm0,0" transform="translate(-255.328 -109.076)" fill="#888"/>
    <path id="Tracé_95" data-name="Tracé 95" d="M360,144h4.85v3.88H360Zm0,0" transform="translate(-287.244 -109.076)" fill="#888"/>
    <path id="Tracé_96" data-name="Tracé 96" d="M235.234,179.88h21.018V176H233.617A1.8,1.8,0,0,0,232,177.94v13.582a1.8,1.8,0,0,0,1.617,1.94h19.4v-3.88H235.234Zm0,0" transform="translate(-185.113 -133.315)" fill="#888"/>
    <path id="Tracé_97" data-name="Tracé 97" d="M253.018,267.88V264h-19.4A1.8,1.8,0,0,0,232,265.94v13.582a1.8,1.8,0,0,0,1.617,1.94h19.4v-3.88H235.234v-9.7Zm0,0" transform="translate(-185.113 -199.972)" fill="#888"/>
    <path id="Tracé_98" data-name="Tracé 98" d="M373.018,192H356.85c-2.679,0-4.85,2.606-4.85,5.821v38.8c0,3.214,2.172,5.821,4.85,5.821h16.168c2.679,0,4.85-2.606,4.85-5.821v-38.8C377.869,194.606,375.7,192,373.018,192Zm1.617,44.625a1.8,1.8,0,0,1-1.617,1.94H356.85a1.8,1.8,0,0,1-1.617-1.94v-1.94h19.4Zm0-5.821h-19.4V197.821a1.8,1.8,0,0,1,1.617-1.94h16.168a1.8,1.8,0,0,1,1.617,1.94Zm0,0" transform="translate(-280.861 -145.434)" fill="#888"/>
    <path id="Tracé_99" data-name="Tracé 99" d="M395.318,224h-9.7A1.8,1.8,0,0,0,384,225.94V233.7a1.8,1.8,0,0,0,1.617,1.94h9.7a1.8,1.8,0,0,0,1.617-1.94V225.94A1.8,1.8,0,0,0,395.318,224Zm-1.617,7.761h-6.467v-3.88H393.7Zm0,0" transform="translate(-306.394 -169.673)" fill="#888"/>
    <path id="Tracé_100" data-name="Tracé 100" d="M395.318,288h-9.7A1.8,1.8,0,0,0,384,289.94V297.7a1.8,1.8,0,0,0,1.617,1.94h9.7a1.8,1.8,0,0,0,1.617-1.94V289.94A1.8,1.8,0,0,0,395.318,288Zm-1.617,7.761h-6.467v-3.88H393.7Zm0,0" transform="translate(-306.394 -218.152)" fill="#888"/>
  </g>
</svg>
