<svg xmlns="http://www.w3.org/2000/svg" width="104" height="103.888" viewBox="0 0 104 103.888">
  <g id="data" transform="translate(0 -0.5)">
    <path id="Tracé_14" data-name="Tracé 14" d="M38.491,139.413a1.522,1.522,0,0,0,2.153-2.153l-3.7-3.7,3.7-3.7a1.522,1.522,0,0,0-2.153-2.153l-4.772,4.772a1.522,1.522,0,0,0,0,2.153Zm0,0" transform="translate(-26.515 -101.02)"/>
    <path id="Tracé_15" data-name="Tracé 15" d="M117.072,133.561l-3.7,3.7a1.522,1.522,0,1,0,2.153,2.153l4.773-4.773a1.521,1.521,0,0,0,0-2.152l-4.773-4.773a1.522,1.522,0,0,0-2.152,2.153Zm0,0" transform="translate(-89.992 -101.017)"/>
    <path id="Tracé_16" data-name="Tracé 16" d="M77.383,139.749a1.522,1.522,0,0,0,1.973-.86l3.749-9.545a1.522,1.522,0,1,0-2.833-1.113l-3.75,9.545A1.522,1.522,0,0,0,77.383,139.749Zm0,0" transform="translate(-60.895 -101.016)"/>
    <path id="Tracé_17" data-name="Tracé 17" d="M39.037,221.259H49.291a1.522,1.522,0,0,0,0-3.045H39.037a1.522,1.522,0,0,0,0,3.045Zm0,0" transform="translate(-29.896 -173.491)"/>
    <path id="Tracé_18" data-name="Tracé 18" d="M135.061,218.215H117.034a1.522,1.522,0,0,0,0,3.045h18.027a1.522,1.522,0,1,0,0-3.045Zm0,0" transform="translate(-92.049 -173.491)"/>
    <path id="Tracé_19" data-name="Tracé 19" d="M39.037,252.865h4.368a1.522,1.522,0,0,0,0-3.045H39.037a1.522,1.522,0,0,0,0,3.045Zm0,0" transform="translate(-29.896 -198.677)"/>
    <path id="Tracé_20" data-name="Tracé 20" d="M178.37,249.82a1.522,1.522,0,0,0,0,3.045h2.66a1.522,1.522,0,1,0,0-3.045Zm0,0" transform="translate(-140.926 -198.677)"/>
    <path id="Tracé_21" data-name="Tracé 21" d="M101.421,251.343a1.522,1.522,0,0,0-1.522-1.522H86.834a1.522,1.522,0,0,0,0,3.045H99.9A1.522,1.522,0,0,0,101.421,251.343Zm0,0" transform="translate(-67.984 -198.677)"/>
    <path id="Tracé_22" data-name="Tracé 22" d="M213.7,251.343a1.522,1.522,0,0,0,1.522,1.523h4.982a1.522,1.522,0,1,0,0-3.045h-4.982A1.522,1.522,0,0,0,213.7,251.343Zm0,0" transform="translate(-170.295 -198.677)"/>
    <path id="Tracé_23" data-name="Tracé 23" d="M166.922,152.322h5.255a1.522,1.522,0,1,0,0-3.045h-5.255a1.522,1.522,0,1,0,0,3.045Zm0,0" transform="translate(-131.802 -118.557)"/>
    <path id="Tracé_24" data-name="Tracé 24" d="M221.769,152.322h32.065a1.522,1.522,0,0,0,0-3.045H221.769a1.522,1.522,0,1,0,0,3.045Zm0,0" transform="translate(-175.508 -118.557)"/>
    <path id="Tracé_25" data-name="Tracé 25" d="M304.694,182.246H291.705a1.522,1.522,0,0,0,0,3.045h12.989a1.522,1.522,0,0,0,0-3.045Zm0,0" transform="translate(-231.24 -144.829)"/>
    <path id="Tracé_26" data-name="Tracé 26" d="M250.213,182.246h-4.465a1.522,1.522,0,0,0,0,3.045h4.465a1.522,1.522,0,0,0,0-3.045Zm0,0" transform="translate(-194.618 -144.829)"/>
    <path id="Tracé_27" data-name="Tracé 27" d="M166.922,185.29h10.938a1.522,1.522,0,0,0,0-3.045H166.922a1.522,1.522,0,1,0,0,3.045Zm0,0" transform="translate(-131.802 -144.828)"/>
    <path id="Tracé_28" data-name="Tracé 28" d="M111.022,281.16H100.769a1.522,1.522,0,1,0,0,3.044h10.253a1.522,1.522,0,1,0,0-3.044Zm0,0" transform="translate(-79.087 -223.651)"/>
    <path id="Tracé_29" data-name="Tracé 29" d="M46.915,281.16H39.037a1.522,1.522,0,0,0,0,3.044h7.878a1.522,1.522,0,0,0,0-3.044Zm0,0" transform="translate(-29.896 -223.651)"/>
    <path id="Tracé_30" data-name="Tracé 30" d="M190.206,281.16H176.811a1.522,1.522,0,1,0,0,3.044h13.394a1.522,1.522,0,0,0,0-3.044Zm0,0" transform="translate(-139.684 -223.651)"/>
    <path id="Tracé_31" data-name="Tracé 31" d="M303.194,242.668h-7.324a1.522,1.522,0,0,0,0,3.045h7.324a1.522,1.522,0,0,0,0-3.045Zm0,0" transform="translate(-234.558 -192.977)"/>
    <path id="Tracé_32" data-name="Tracé 32" d="M394.5,245.712h10.34a1.522,1.522,0,1,0,0-3.045H394.5a1.522,1.522,0,0,0,0,3.045Zm0,0" transform="translate(-313.153 -192.977)"/>
    <path id="Tracé_33" data-name="Tracé 33" d="M359.748,242.668h-2.369a1.522,1.522,0,1,0,0,3.045h2.369a1.522,1.522,0,0,0,0-3.045Zm0,0" transform="translate(-283.572 -192.977)"/>
    <path id="Tracé_34" data-name="Tracé 34" d="M295.87,327.372h7.324a1.522,1.522,0,1,0,0-3.044H295.87a1.522,1.522,0,1,0,0,3.044Zm0,0" transform="translate(-234.558 -258.051)"/>
    <path id="Tracé_35" data-name="Tracé 35" d="M394.5,327.372h10.34a1.522,1.522,0,1,0,0-3.044H394.5a1.522,1.522,0,0,0,0,3.044Zm0,0" transform="translate(-313.153 -258.051)"/>
    <path id="Tracé_36" data-name="Tracé 36" d="M357.382,327.372h2.369a1.522,1.522,0,1,0,0-3.044h-2.369a1.522,1.522,0,0,0,0,3.044Zm0,0" transform="translate(-283.576 -258.051)"/>
    <path id="Tracé_37" data-name="Tracé 37" d="M303.194,405.988h-7.324a1.522,1.522,0,1,0,0,3.044h7.324a1.522,1.522,0,0,0,0-3.044Zm0,0" transform="translate(-234.558 -323.123)"/>
    <path id="Tracé_38" data-name="Tracé 38" d="M404.838,405.988H394.5a1.522,1.522,0,1,0,0,3.044h10.34a1.522,1.522,0,1,0,0-3.044Zm0,0" transform="translate(-313.153 -323.123)"/>
    <path id="Tracé_39" data-name="Tracé 39" d="M359.748,405.988h-2.369a1.522,1.522,0,1,0,0,3.044h2.369a1.522,1.522,0,0,0,0-3.044Zm0,0" transform="translate(-283.572 -323.123)"/>
    <path id="Tracé_40" data-name="Tracé 40" d="M97.3.5H6.7A6.707,6.707,0,0,0,0,7.2V80.846a6.707,6.707,0,0,0,6.7,6.7h5.728a1.522,1.522,0,1,0,0-3.044H6.7a3.659,3.659,0,0,1-3.655-3.655V75.072H58.5V77.7H57.29A3,3,0,0,0,54.3,80.689V84.5H21.681a1.522,1.522,0,1,0,0,3.044H36.316V93h-4.6a5.566,5.566,0,0,0-5.56,5.56v3.288a2.539,2.539,0,0,0,2.537,2.537H75.187a2.539,2.539,0,0,0,2.537-2.537V98.563A5.566,5.566,0,0,0,72.164,93h-4.6V91.079H95.707A3,3,0,0,0,98.7,88.085v-.716a6.708,6.708,0,0,0,5.184-6.523L104,7.2A6.7,6.7,0,0,0,97.3.5ZM57.341,71.448v-7.3H95.656v7.3Zm4.2-10.34v-3.2H91.456v3.2ZM91.456,74.492v3.2H61.541v-3.2Zm-52.1,13.052H54.3v.542a3,3,0,0,0,2.994,2.993h7.235V93H39.359Zm32.806,8.5a2.518,2.518,0,0,1,2.515,2.515v2.781H29.2V98.563a2.519,2.519,0,0,1,2.516-2.515Zm23.491-8.013H57.341v-7.3H95.656Zm5.184-7.189a3.656,3.656,0,0,1-2.14,3.321V80.688A3,3,0,0,0,95.707,77.7H94.5V75.072h6.341Zm0-8.818h-2.19c.031-.172.05-7.927.05-7.927a3,3,0,0,0-2.994-2.994H94.5v-3.2h1.207A3,3,0,0,0,98.7,54.912v-7.4a3,3,0,0,0-2.994-2.994h-8.6a1.522,1.522,0,0,0,0,3.045h8.546v7.3H57.341v-7.3h20.3a1.522,1.522,0,0,0,0-3.045H57.29A3,3,0,0,0,54.3,47.514v7.4a3,3,0,0,0,2.994,2.994H58.5v3.2H57.29A3,3,0,0,0,54.3,64.1s.019,7.755.05,7.927H3.044V21.2h97.8Zm0-53.868H3.156V7.2A3.658,3.658,0,0,1,6.811,3.544H97.186A3.659,3.659,0,0,1,100.841,7.2Zm0,0"/>
    <path id="Tracé_41" data-name="Tracé 41" d="M37.74,29.262a4.467,4.467,0,1,0,4.467,4.466,4.471,4.471,0,0,0-4.467-4.466Zm0,5.889a1.423,1.423,0,1,1,1.423-1.423A1.424,1.424,0,0,1,37.74,35.151Zm0,0" transform="translate(-26.515 -22.92)"/>
    <path id="Tracé_42" data-name="Tracé 42" d="M93.725,29.262a4.467,4.467,0,1,0,4.466,4.466A4.472,4.472,0,0,0,93.725,29.262Zm0,5.889a1.423,1.423,0,1,1,1.423-1.423A1.424,1.424,0,0,1,93.725,35.151Zm0,0" transform="translate(-71.128 -22.92)"/>
    <path id="Tracé_43" data-name="Tracé 43" d="M149.712,29.262a4.467,4.467,0,1,0,4.467,4.466A4.471,4.471,0,0,0,149.712,29.262Zm0,5.889a1.423,1.423,0,1,1,1.423-1.423A1.424,1.424,0,0,1,149.712,35.151Zm0,0" transform="translate(-115.743 -22.92)"/>
  </g>
</svg>
