<svg xmlns="http://www.w3.org/2000/svg" width="113" height="113" viewBox="0 0 113 113">
  <g id="performance" transform="translate(-504 -334)">
    <g id="Groupe_2" data-name="Groupe 2" transform="translate(504 334)">
      <g id="Groupe_1" data-name="Groupe 1">
        <path id="Tracé_44" data-name="Tracé 44" d="M111.619,49.045l-6.808-1.911a48.752,48.752,0,0,0-1.788-6.7l4.926-5.045a1.893,1.893,0,0,0,.371-2.1A56.8,56.8,0,0,0,102.5,23.214a1.882,1.882,0,0,0-2-.723L93.666,24.24a49.532,49.532,0,0,0-4.9-4.9l1.749-6.828a1.894,1.894,0,0,0-.723-2A56.774,56.774,0,0,0,79.714,4.679a1.882,1.882,0,0,0-2.1.371L72.573,9.976a48.855,48.855,0,0,0-6.706-1.788L63.955,1.381A1.892,1.892,0,0,0,62.132,0H50.868a1.892,1.892,0,0,0-1.823,1.381L47.134,8.189a48.753,48.753,0,0,0-6.7,1.788L35.385,5.05a1.883,1.883,0,0,0-2.1-.371A56.782,56.782,0,0,0,23.214,10.5a1.894,1.894,0,0,0-.723,2l1.749,6.828a49.512,49.512,0,0,0-4.9,4.9l-6.828-1.749a1.877,1.877,0,0,0-2,.723A56.775,56.775,0,0,0,4.679,33.286a1.893,1.893,0,0,0,.371,2.1l4.926,5.045a48.889,48.889,0,0,0-1.788,6.706L1.381,49.045A1.892,1.892,0,0,0,0,50.867V62.131a1.892,1.892,0,0,0,1.381,1.823l6.808,1.911a48.787,48.787,0,0,0,1.788,6.706L5.05,77.616a1.893,1.893,0,0,0-.371,2.1A56.78,56.78,0,0,0,10.5,89.786a1.89,1.89,0,0,0,2,.723l6.828-1.749a49.512,49.512,0,0,0,4.9,4.9l-1.749,6.828a1.894,1.894,0,0,0,.723,2,56.775,56.775,0,0,0,10.074,5.827,1.9,1.9,0,0,0,2.1-.371l5.045-4.926a48.888,48.888,0,0,0,6.706,1.788l1.911,6.808A1.893,1.893,0,0,0,50.867,113H62.131a1.892,1.892,0,0,0,1.823-1.381l1.911-6.806a49.03,49.03,0,0,0,6.706-1.789l5.045,4.926a1.893,1.893,0,0,0,2.1.371A56.8,56.8,0,0,0,89.786,102.5a1.894,1.894,0,0,0,.723-2L88.76,93.666a49.532,49.532,0,0,0,4.9-4.9l6.828,1.749a1.89,1.89,0,0,0,2-.723,56.762,56.762,0,0,0,5.827-10.075,1.893,1.893,0,0,0-.371-2.1l-4.926-5.045a48.888,48.888,0,0,0,1.788-6.706l6.808-1.911A1.892,1.892,0,0,0,113,62.132V50.867A1.892,1.892,0,0,0,111.619,49.045ZM109.214,60.7l-6.568,1.845a1.892,1.892,0,0,0-1.355,1.51,45.224,45.224,0,0,1-2.222,8.333,1.889,1.889,0,0,0,.418,1.984l4.841,4.958a53.191,53.191,0,0,1-4.159,7.192L93.455,84.8a1.88,1.88,0,0,0-1.928.628,45.6,45.6,0,0,1-6.1,6.1,1.9,1.9,0,0,0-.628,1.93l1.719,6.714a52.959,52.959,0,0,1-7.192,4.157l-4.958-4.841a1.883,1.883,0,0,0-1.983-.418,45.322,45.322,0,0,1-8.333,2.224,1.894,1.894,0,0,0-1.51,1.355L60.7,109.214H52.3l-1.845-6.568a1.892,1.892,0,0,0-1.51-1.355,45.224,45.224,0,0,1-8.333-2.222,1.881,1.881,0,0,0-1.984.418l-4.958,4.841a53.2,53.2,0,0,1-7.192-4.159L28.2,93.455a1.892,1.892,0,0,0-.628-1.928,45.6,45.6,0,0,1-6.1-6.1,1.9,1.9,0,0,0-1.93-.628l-6.714,1.719a53.141,53.141,0,0,1-4.157-7.192l4.841-4.958a1.89,1.89,0,0,0,.418-1.984,45.158,45.158,0,0,1-2.222-8.333,1.892,1.892,0,0,0-1.355-1.51L3.786,60.7V52.3l6.568-1.845a1.892,1.892,0,0,0,1.355-1.51,45.224,45.224,0,0,1,2.222-8.333,1.889,1.889,0,0,0-.418-1.984L8.672,33.672a53.189,53.189,0,0,1,4.159-7.192L19.544,28.2a1.891,1.891,0,0,0,1.928-.628,45.6,45.6,0,0,1,6.1-6.1,1.9,1.9,0,0,0,.628-1.93l-1.719-6.714a53.13,53.13,0,0,1,7.193-4.157l4.958,4.841a1.882,1.882,0,0,0,1.984.418,45.285,45.285,0,0,1,8.331-2.222,1.892,1.892,0,0,0,1.51-1.355L52.3,3.786h8.4l1.845,6.568a1.892,1.892,0,0,0,1.51,1.355,45.223,45.223,0,0,1,8.333,2.222,1.881,1.881,0,0,0,1.984-.418l4.958-4.841a53.189,53.189,0,0,1,7.192,4.159L84.8,19.545a1.892,1.892,0,0,0,.628,1.928,45.6,45.6,0,0,1,6.1,6.1,1.886,1.886,0,0,0,1.93.628l6.714-1.719a52.959,52.959,0,0,1,4.157,7.192l-4.841,4.958a1.89,1.89,0,0,0-.418,1.984,45.285,45.285,0,0,1,2.222,8.331,1.892,1.892,0,0,0,1.355,1.51l6.568,1.845v8.4Z" transform="translate(0 0)"/>
      </g>
    </g>
    <g id="Groupe_4" data-name="Groupe 4" transform="translate(522.642 352.642)">
      <g id="Groupe_3" data-name="Groupe 3">
        <path id="Tracé_45" data-name="Tracé 45" d="M116.647,78.789A37.858,37.858,0,1,0,154.5,116.647,37.858,37.858,0,0,0,116.647,78.789ZM142,139.326l-3.94-3.94-2.677,2.677,3.94,3.94a33.883,33.883,0,0,1-20.786,8.621V145.04h-3.786v5.583A33.883,33.883,0,0,1,93.968,142l3.94-3.94-2.677-2.677-3.94,3.94A33.882,33.882,0,0,1,82.67,118.54h5.583v-3.786H82.671a33.883,33.883,0,0,1,8.621-20.786l3.94,3.94,2.677-2.677-3.94-3.94a33.883,33.883,0,0,1,20.786-8.621v5.583h3.786V82.671a33.883,33.883,0,0,1,20.786,8.621l-3.94,3.94,2.677,2.677,3.94-3.94a33.882,33.882,0,0,1,8.621,20.786H145.04v3.786h5.583A33.886,33.886,0,0,1,142,139.326Z" transform="translate(-78.789 -78.789)"/>
      </g>
    </g>
    <g id="Groupe_6" data-name="Groupe 6" transform="translate(552.929 373.464)">
      <g id="Groupe_5" data-name="Groupe 5">
        <path id="Tracé_46" data-name="Tracé 46" d="M230.554,167.108a1.893,1.893,0,0,0-2.1,0l-13.738,9.159c-.118-.007-.235-.013-.355-.013a7.572,7.572,0,1,0,7.572,7.572c0-.118-.005-.237-.013-.353l9.159-13.74A1.893,1.893,0,0,0,230.554,167.108Zm-12.172,14.845a2,2,0,0,0-.292,1.368,3.261,3.261,0,0,1,.057.5,3.786,3.786,0,1,1-3.786-3.786,3.56,3.56,0,0,1,.542.063,1.91,1.91,0,0,0,1.331-.3l6.444-4.3Z" transform="translate(-206.79 -166.79)"/>
      </g>
    </g>
  </g>
</svg>
