<svg xmlns="http://www.w3.org/2000/svg" width="109.057" height="101.787" viewBox="0 0 109.057 101.787">
  <g id="responsive" transform="translate(0 -16)">
    <g id="Groupe_8" data-name="Groupe 8" transform="translate(0 16)">
      <g id="Groupe_7" data-name="Groupe 7" transform="translate(0 0)">
        <path id="Tracé_47" data-name="Tracé 47" d="M103.6,65.076V25.088A9.1,9.1,0,0,0,94.516,16H14.541a9.1,9.1,0,0,0-9.088,9.088V52.352A5.46,5.46,0,0,0,0,57.805v54.529a5.46,5.46,0,0,0,5.453,5.453H45.44a5.46,5.46,0,0,0,5.453-5.453H66.127a5.452,5.452,0,0,0,5.26-6.887L67.814,92.34H78.158v19.994a5.46,5.46,0,0,0,5.453,5.453H103.6a5.46,5.46,0,0,0,5.453-5.453V70.529A5.46,5.46,0,0,0,103.6,65.076ZM47.258,112.334a1.821,1.821,0,0,1-1.818,1.818H5.453a1.821,1.821,0,0,1-1.818-1.818V108.7H47.258Zm0-7.27H3.635V65.076H47.258Zm0-43.623H3.635V57.805a1.821,1.821,0,0,1,1.818-1.818H45.44a1.821,1.821,0,0,1,1.818,1.818ZM67.881,106.4a1.817,1.817,0,0,1-1.754,2.3H50.893v-3.635H67.515Zm-16.987-4.975V92.34H64.046l2.479,9.088ZM78.158,88.7H50.893V77.8H78.158Zm0-18.176v3.635H50.893V57.805a5.46,5.46,0,0,0-5.453-5.453H9.088V25.088a5.46,5.46,0,0,1,5.453-5.453H94.516a5.46,5.46,0,0,1,5.453,5.453V65.076H83.61A5.46,5.46,0,0,0,78.158,70.529Zm27.264,41.805a1.821,1.821,0,0,1-1.818,1.818H83.61a1.821,1.821,0,0,1-1.818-1.818V108.7h23.629Zm0-7.27H81.793V77.8h23.629Zm0-30.9H81.793V70.529a1.821,1.821,0,0,1,1.818-1.818H103.6a1.821,1.821,0,0,1,1.818,1.818Z" transform="translate(0 -16)"/>
      </g>
    </g>
    <g id="Groupe_10" data-name="Groupe 10" transform="translate(9.62 83.782)">
      <g id="Groupe_9" data-name="Groupe 9">
        <rect id="Rectangle_13" data-name="Rectangle 13" width="10.282" height="3.635" transform="translate(0 7.271) rotate(-45)"/>
      </g>
    </g>
    <g id="Groupe_12" data-name="Groupe 12" transform="translate(16.89 74.695)">
      <g id="Groupe_11" data-name="Groupe 11" transform="translate(0 0)">
        <rect id="Rectangle_14" data-name="Rectangle 14" width="30.847" height="3.635" transform="translate(0 21.812) rotate(-45)"/>
      </g>
    </g>
    <g id="Groupe_14" data-name="Groupe 14" transform="translate(20.525 69.245)">
      <g id="Groupe_13" data-name="Groupe 13">
        <rect id="Rectangle_15" data-name="Rectangle 15" width="15.422" height="3.635" transform="translate(0 10.905) rotate(-45)"/>
      </g>
    </g>
    <g id="Groupe_16" data-name="Groupe 16" transform="translate(85.957 81.969)">
      <g id="Groupe_15" data-name="Groupe 15">
        <rect id="Rectangle_16" data-name="Rectangle 16" width="12.85" height="3.635" transform="translate(0 9.086) rotate(-45)"/>
      </g>
    </g>
    <g id="Groupe_18" data-name="Groupe 18" transform="translate(89.591 89.248)">
      <g id="Groupe_17" data-name="Groupe 17">
        <rect id="Rectangle_17" data-name="Rectangle 17" width="12.85" height="3.635" transform="translate(0 9.086) rotate(-45)"/>
      </g>
    </g>
    <g id="Groupe_20" data-name="Groupe 20" transform="translate(47.788 36.527)">
      <g id="Groupe_19" data-name="Groupe 19">
        <rect id="Rectangle_18" data-name="Rectangle 18" width="15.422" height="3.635" transform="translate(0 10.905) rotate(-45)"/>
      </g>
    </g>
    <g id="Groupe_22" data-name="Groupe 22" transform="translate(64.148 32.892)">
      <g id="Groupe_21" data-name="Groupe 21" transform="translate(0 0)">
        <rect id="Rectangle_19" data-name="Rectangle 19" width="15.422" height="3.635" transform="translate(0 10.905) rotate(-45)"/>
      </g>
    </g>
    <g id="Groupe_24" data-name="Groupe 24" transform="translate(53.241 47.434)">
      <g id="Groupe_23" data-name="Groupe 23">
        <rect id="Rectangle_20" data-name="Rectangle 20" width="10.282" height="3.635" transform="translate(0 7.271) rotate(-45)"/>
      </g>
    </g>
    <g id="Groupe_26" data-name="Groupe 26" transform="translate(62.319 25.626)">
      <g id="Groupe_25" data-name="Groupe 25">
        <rect id="Rectangle_21" data-name="Rectangle 21" width="10.308" height="3.635" transform="translate(0 7.289) rotate(-45)"/>
      </g>
    </g>
    <g id="Groupe_28" data-name="Groupe 28" transform="translate(12.723 23.27)">
      <g id="Groupe_27" data-name="Groupe 27" transform="translate(0 0)">
        <rect id="Rectangle_22" data-name="Rectangle 22" width="3.635" height="3.635"/>
      </g>
    </g>
    <g id="Groupe_30" data-name="Groupe 30" transform="translate(19.994 23.27)">
      <g id="Groupe_29" data-name="Groupe 29" transform="translate(0 0)">
        <rect id="Rectangle_23" data-name="Rectangle 23" width="3.635" height="3.635"/>
      </g>
    </g>
    <g id="Groupe_32" data-name="Groupe 32" transform="translate(27.264 23.27)">
      <g id="Groupe_31" data-name="Groupe 31" transform="translate(0 0)">
        <rect id="Rectangle_24" data-name="Rectangle 24" width="3.635" height="3.635"/>
      </g>
    </g>
  </g>
</svg>
