<svg id="laptop" xmlns="http://www.w3.org/2000/svg" width="106" height="106" viewBox="0 0 106 106">
  <path id="Tracé_3" data-name="Tracé 3" d="M48,448h3.419v3.419H48Zm0,0" transform="translate(-37.742 -352.258)"/>
  <path id="Tracé_4" data-name="Tracé 4" d="M80,448h3.419v3.419H80Zm0,0" transform="translate(-62.903 -352.258)"/>
  <path id="Tracé_5" data-name="Tracé 5" d="M112,448h3.419v3.419H112Zm0,0" transform="translate(-88.065 -352.258)"/>
  <path id="Tracé_6" data-name="Tracé 6" d="M384,448h13.677v3.419H384Zm0,0" transform="translate(-301.935 -352.258)"/>
  <path id="Tracé_7" data-name="Tracé 7" d="M102.581,88.9V32.484a8.558,8.558,0,0,0-8.548-8.548H88.9a23.935,23.935,0,0,0-47.871,0H11.968a8.558,8.558,0,0,0-8.548,8.548V88.9H0v8.548A8.558,8.558,0,0,0,8.548,106h88.9A8.558,8.558,0,0,0,106,97.452V88.9ZM94.032,27.355a5.136,5.136,0,0,1,5.129,5.129V88.9H95.742V34.194a3.423,3.423,0,0,0-3.419-3.419H87.895a23.768,23.768,0,0,0,.735-3.419Zm-48.587-9.7,18.146,7.562L69.8,43.851a20.484,20.484,0,0,1-24.36-26.2ZM73.053,42.785,66.924,24.4,80.618,10.7a20.478,20.478,0,0,1-7.565,32.082ZM64.968,3.419A20.421,20.421,0,0,1,78.2,8.284L64.57,21.916,46.77,14.5a20.52,20.52,0,0,1,18.2-11.082ZM6.839,32.484a5.136,5.136,0,0,1,5.129-5.129H41.306a23.544,23.544,0,0,0,.735,3.419H13.677a3.423,3.423,0,0,0-3.419,3.419V88.9H6.839Zm95.742,64.968a5.136,5.136,0,0,1-5.129,5.129H8.548a5.136,5.136,0,0,1-5.129-5.129V92.323H38.642a13.285,13.285,0,0,0,8.937,3.419H58.423a13.285,13.285,0,0,0,8.937-3.419H88.9V88.9H65.969l-.5.5a9.9,9.9,0,0,1-7.047,2.918H47.577A9.9,9.9,0,0,1,40.53,89.4l-.5-.5H13.677V34.194h29.7a23.884,23.884,0,0,0,43.186,0h5.762V92.323H102.58Zm0,0"/>
  <path id="Tracé_8" data-name="Tracé 8" d="M146.677,298.258a5.1,5.1,0,0,0-2.84.863l-5.965-4.472a5.052,5.052,0,0,0,.256-1.52,5.129,5.129,0,0,0-10.258,0,5.077,5.077,0,0,0,.3,1.672l-9.575,7.661a5.027,5.027,0,0,0-5.753.251l-7.372-4.915a5.016,5.016,0,0,0,.173-1.25,5.129,5.129,0,1,0-10.258,0,5.016,5.016,0,0,0,.173,1.25l-7.372,4.915a5.075,5.075,0,0,0-3.059-1.036,5.129,5.129,0,1,0,5.129,5.129,5.016,5.016,0,0,0-.173-1.25l7.372-4.915a5.033,5.033,0,0,0,6.117,0l7.372,4.915a5.027,5.027,0,0,0-.173,1.25,5.129,5.129,0,0,0,10.258,0,5.077,5.077,0,0,0-.3-1.672l9.575-7.661a5.062,5.062,0,0,0,5.535-.078l5.965,4.472a5.052,5.052,0,0,0-.256,1.52,5.129,5.129,0,1,0,5.129-5.129ZM85.129,308.516a1.71,1.71,0,1,1,1.71-1.71A1.713,1.713,0,0,1,85.129,308.516Zm15.387-10.258a1.71,1.71,0,1,1,1.71-1.71A1.713,1.713,0,0,1,100.516,298.258ZM115.9,308.516a1.71,1.71,0,1,1,1.71-1.71A1.713,1.713,0,0,1,115.9,308.516ZM133,294.839a1.71,1.71,0,1,1,1.71-1.71A1.713,1.713,0,0,1,133,294.839ZM146.677,305.1a1.71,1.71,0,1,1,1.71-1.71A1.713,1.713,0,0,1,146.677,305.1Zm0,0" transform="translate(-62.903 -226.452)"/>
  <path id="Tracé_9" data-name="Tracé 9" d="M107.355,176H80v23.935h27.355Zm-3.419,20.516H83.419v-17.1h20.516Zm0,0" transform="translate(-62.903 -138.387)"/>
  <path id="Tracé_10" data-name="Tracé 10" d="M112,208h13.677v3.419H112Zm0,0" transform="translate(-88.065 -163.548)"/>
  <path id="Tracé_11" data-name="Tracé 11" d="M112,240h13.677v3.419H112Zm0,0" transform="translate(-88.065 -188.71)"/>
  <path id="Tracé_12" data-name="Tracé 12" d="M224,256h3.419v3.419H224Zm0,0" transform="translate(-176.129 -201.29)"/>
  <path id="Tracé_13" data-name="Tracé 13" d="M256,256h34.194v3.419H256Zm0,0" transform="translate(-201.29 -201.29)"/>
</svg>
